<svg width="434" height="264" viewBox="0 0 434 264" fill="none" xmlns="http://www.w3.org/2000/svg">
<mask id="path-1-inside-1_214_541" fill="white">
<path fill-rule="evenodd" clip-rule="evenodd" d="M20.0541 0.00195312H413.187V12.2005H419.832V23.4231H426.476V34.6457H433.121V228.358H427.214V239.581H420.57V250.803H413.925V263.002H20.4232V251.779H13.7787V240.557H7.13422V229.334H0.120544V34.6457H6.76502V23.4231H13.4096V12.2005H20.0541V0.00195312ZM0.120544 9.76077V17.0799H0.120574V9.76077H0.120544Z"/>
</mask>
<path fill-rule="evenodd" clip-rule="evenodd" d="M20.0541 0.00195312H413.187V12.2005H419.832V23.4231H426.476V34.6457H433.121V228.358H427.214V239.581H420.57V250.803H413.925V263.002H20.4232V251.779H13.7787V240.557H7.13422V229.334H0.120544V34.6457H6.76502V23.4231H13.4096V12.2005H20.0541V0.00195312ZM0.120544 9.76077V17.0799H0.120574V9.76077H0.120544Z" fill="black"/>
<path d="M413.187 0.00195312H414.187V-0.998047H413.187V0.00195312ZM20.0541 0.00195312V-0.998047H19.0541V0.00195312H20.0541ZM413.187 12.2005H412.187V13.2005H413.187V12.2005ZM419.832 12.2005H420.832V11.2005H419.832V12.2005ZM419.832 23.4231H418.832V24.4231H419.832V23.4231ZM426.476 23.4231H427.476V22.4231H426.476V23.4231ZM426.476 34.6457H425.476V35.6457H426.476V34.6457ZM433.121 34.6457H434.121V33.6457H433.121V34.6457ZM433.121 228.358V229.358H434.121V228.358H433.121ZM427.214 228.358V227.358H426.214V228.358H427.214ZM427.214 239.581V240.581H428.214V239.581H427.214ZM420.57 239.581V238.581H419.57V239.581H420.57ZM420.57 250.803V251.803H421.57V250.803H420.57ZM413.925 250.803V249.803H412.925V250.803H413.925ZM413.925 263.002V264.002H414.925V263.002H413.925ZM20.4232 263.002H19.4232V264.002H20.4232V263.002ZM20.4232 251.779H21.4232V250.779H20.4232V251.779ZM13.7787 251.779H12.7787V252.779H13.7787V251.779ZM13.7787 240.557H14.7787V239.557H13.7787V240.557ZM7.13422 240.557H6.13422V241.557H7.13422V240.557ZM7.13422 229.334H8.13422V228.334H7.13422V229.334ZM0.120544 229.334H-0.879456V230.334H0.120544V229.334ZM0.120544 34.6457V33.6457H-0.879456V34.6457H0.120544ZM6.76502 34.6457V35.6457H7.76502V34.6457H6.76502ZM6.76502 23.4231V22.4231H5.76502V23.4231H6.76502ZM13.4096 23.4231V24.4231H14.4096V23.4231H13.4096ZM13.4096 12.2005V11.2005H12.4096V12.2005H13.4096ZM20.0541 12.2005V13.2005H21.0541V12.2005H20.0541ZM0.120544 17.0799H-0.879456V18.0799H0.120544V17.0799ZM0.120544 9.76077V8.76077H-0.879456V9.76077H0.120544ZM0.120574 17.0799V18.0799H1.12057V17.0799H0.120574ZM0.120574 9.76077H1.12057V8.76077H0.120574V9.76077ZM413.187 -0.998047H20.0541V1.00195H413.187V-0.998047ZM414.187 12.2005V0.00195312H412.187V12.2005H414.187ZM419.832 11.2005H413.187V13.2005H419.832V11.2005ZM420.832 23.4231V12.2005H418.832V23.4231H420.832ZM426.476 22.4231H419.832V24.4231H426.476V22.4231ZM427.476 34.6457V23.4231H425.476V34.6457H427.476ZM433.121 33.6457H426.476V35.6457H433.121V33.6457ZM434.121 228.358V34.6457H432.121V228.358H434.121ZM427.214 229.358H433.121V227.358H427.214V229.358ZM428.214 239.581V228.358H426.214V239.581H428.214ZM420.57 240.581H427.214V238.581H420.57V240.581ZM421.57 250.803V239.581H419.57V250.803H421.57ZM413.925 251.803H420.57V249.803H413.925V251.803ZM414.925 263.002V250.803H412.925V263.002H414.925ZM20.4232 264.002H413.925V262.002H20.4232V264.002ZM19.4232 251.779V263.002H21.4232V251.779H19.4232ZM13.7787 252.779H20.4232V250.779H13.7787V252.779ZM12.7787 240.557V251.779H14.7787V240.557H12.7787ZM7.13422 241.557H13.7787V239.557H7.13422V241.557ZM6.13422 229.334V240.557H8.13422V229.334H6.13422ZM0.120544 230.334H7.13422V228.334H0.120544V230.334ZM-0.879456 34.6457V229.334H1.12054V34.6457H-0.879456ZM6.76502 33.6457H0.120544V35.6457H6.76502V33.6457ZM5.76502 23.4231V34.6457H7.76502V23.4231H5.76502ZM13.4096 22.4231H6.76502V24.4231H13.4096V22.4231ZM12.4096 12.2005V23.4231H14.4096V12.2005H12.4096ZM20.0541 11.2005H13.4096V13.2005H20.0541V11.2005ZM19.0541 0.00195312V12.2005H21.0541V0.00195312H19.0541ZM1.12054 17.0799V9.76077H-0.879456V17.0799H1.12054ZM0.120574 16.0799H0.120544V18.0799H0.120574V16.0799ZM-0.879426 9.76077V17.0799H1.12057V9.76077H-0.879426ZM0.120544 10.7608H0.120574V8.76077H0.120544V10.7608Z" fill="black" mask="url(#path-1-inside-1_214_541)"/>
<mask id="path-3-inside-2_214_541" fill="white">
<path fill-rule="evenodd" clip-rule="evenodd" d="M25.7686 3.70142H407.842V15.5567H414.299V26.4637H420.757V37.3706H427.214V225.633H421.474V236.54H415.017V247.447H408.559V259.302H26.1273V248.396H19.6849V237.629H13.2122V226.582H6.39594V37.3706H12.8535V26.4637H19.311V15.5568H25.7686V3.70142Z"/>
</mask>
<path fill-rule="evenodd" clip-rule="evenodd" d="M25.7686 3.70142H407.842V15.5567H414.299V26.4637H420.757V37.3706H427.214V225.633H421.474V236.54H415.017V247.447H408.559V259.302H26.1273V248.396H19.6849V237.629H13.2122V226.582H6.39594V37.3706H12.8535V26.4637H19.311V15.5568H25.7686V3.70142Z" fill="#E75B00"/>
<path d="M407.842 3.70142H410.842V0.701416H407.842V3.70142ZM25.7686 3.70142V0.701416H22.7686V3.70142H25.7686ZM407.842 15.5567H404.842V18.5567H407.842V15.5567ZM414.299 15.5567H417.299V12.5567H414.299V15.5567ZM414.299 26.4637H411.299V29.4637H414.299V26.4637ZM420.757 26.4637H423.757V23.4637H420.757V26.4637ZM420.757 37.3706H417.757V40.3706H420.757V37.3706ZM427.214 37.3706H430.214V34.3706H427.214V37.3706ZM427.214 225.633V228.633H430.214V225.633H427.214ZM421.474 225.633V222.633H418.474V225.633H421.474ZM421.474 236.54V239.54H424.474V236.54H421.474ZM415.017 236.54V233.54H412.017V236.54H415.017ZM415.017 247.447V250.447H418.017V247.447H415.017ZM408.559 247.447V244.447H405.559V247.447H408.559ZM408.559 259.302V262.302H411.559V259.302H408.559ZM26.1273 259.302H23.1273V262.302H26.1273V259.302ZM26.1273 248.396H29.1273V245.396H26.1273V248.396ZM19.6849 248.396H16.6849V251.396H19.6849V248.396ZM19.6849 237.629H22.6849V234.629H19.6849V237.629ZM13.2122 237.629H10.2122V240.629H13.2122V237.629ZM13.2122 226.582H16.2122V223.582H13.2122V226.582ZM6.39594 226.582H3.39594V229.582H6.39594V226.582ZM6.39594 37.3706V34.3706H3.39594V37.3706H6.39594ZM12.8535 37.3706V40.3706H15.8535V37.3706H12.8535ZM12.8535 26.4637V23.4637H9.8535V26.4637H12.8535ZM19.311 26.4637V29.4637H22.311V26.4637H19.311ZM19.311 15.5568V12.5568H16.311V15.5568H19.311ZM25.7686 15.5568V18.5568H28.7686V15.5568H25.7686ZM407.842 0.701416H25.7686V6.70142H407.842V0.701416ZM410.842 15.5567V3.70142H404.842V15.5567H410.842ZM414.299 12.5567H407.842V18.5567H414.299V12.5567ZM417.299 26.4637V15.5567H411.299V26.4637H417.299ZM420.757 23.4637H414.299V29.4637H420.757V23.4637ZM423.757 37.3706V26.4637H417.757V37.3706H423.757ZM427.214 34.3706H420.757V40.3706H427.214V34.3706ZM430.214 225.633V37.3706H424.214V225.633H430.214ZM421.474 228.633H427.214V222.633H421.474V228.633ZM424.474 236.54V225.633H418.474V236.54H424.474ZM415.017 239.54H421.474V233.54H415.017V239.54ZM418.017 247.447V236.54H412.017V247.447H418.017ZM408.559 250.447H415.017V244.447H408.559V250.447ZM411.559 259.302V247.447H405.559V259.302H411.559ZM26.1273 262.302H408.559V256.302H26.1273V262.302ZM23.1273 248.396V259.302H29.1273V248.396H23.1273ZM19.6849 251.396H26.1273V245.396H19.6849V251.396ZM16.6849 237.629V248.396H22.6849V237.629H16.6849ZM13.2122 240.629H19.6849V234.629H13.2122V240.629ZM10.2122 226.582V237.629H16.2122V226.582H10.2122ZM6.39594 229.582H13.2122V223.582H6.39594V229.582ZM3.39594 37.3706V226.582H9.39594V37.3706H3.39594ZM12.8535 34.3706H6.39594V40.3706H12.8535V34.3706ZM9.8535 26.4637V37.3706H15.8535V26.4637H9.8535ZM19.311 23.4637H12.8535V29.4637H19.311V23.4637ZM16.311 15.5568V26.4637H22.311V15.5568H16.311ZM25.7686 12.5568H19.311V18.5568H25.7686V12.5568ZM22.7686 3.70142V15.5568H28.7686V3.70142H22.7686Z" fill="#E75B00" mask="url(#path-3-inside-2_214_541)"/>
</svg>
