<svg width="434" height="263" viewBox="0 0 434 263" fill="none" xmlns="http://www.w3.org/2000/svg">
<mask id="path-1-inside-1_214_645" fill="white">
<path fill-rule="evenodd" clip-rule="evenodd" d="M20.0541 -0.000244141H413.187V12.1983H419.832V23.4209H426.476V34.6435H433.121V228.356H427.214V239.579H420.57V250.801H413.925V263H20.4233V251.777H13.7788V240.554H7.13428V229.332H0.120605V34.6435H6.76508V23.4209H13.4096V12.1983H20.0541V-0.000244141ZM0.120605 9.75857V17.0777H0.120636V9.75857H0.120605Z"/>
</mask>
<path fill-rule="evenodd" clip-rule="evenodd" d="M20.0541 -0.000244141H413.187V12.1983H419.832V23.4209H426.476V34.6435H433.121V228.356H427.214V239.579H420.57V250.801H413.925V263H20.4233V251.777H13.7788V240.554H7.13428V229.332H0.120605V34.6435H6.76508V23.4209H13.4096V12.1983H20.0541V-0.000244141ZM0.120605 9.75857V17.0777H0.120636V9.75857H0.120605Z" fill="black"/>
<path d="M413.187 -0.000244141H414.187V-1.00024H413.187V-0.000244141ZM20.0541 -0.000244141V-1.00024H19.0541V-0.000244141H20.0541ZM413.187 12.1983H412.187V13.1983H413.187V12.1983ZM419.832 12.1983H420.832V11.1983H419.832V12.1983ZM419.832 23.4209H418.832V24.4209H419.832V23.4209ZM426.476 23.4209H427.476V22.4209H426.476V23.4209ZM426.476 34.6435H425.476V35.6435H426.476V34.6435ZM433.121 34.6435H434.121V33.6435H433.121V34.6435ZM433.121 228.356V229.356H434.121V228.356H433.121ZM427.214 228.356V227.356H426.214V228.356H427.214ZM427.214 239.579V240.579H428.214V239.579H427.214ZM420.57 239.579V238.579H419.57V239.579H420.57ZM420.57 250.801V251.801H421.57V250.801H420.57ZM413.925 250.801V249.801H412.925V250.801H413.925ZM413.925 263V264H414.925V263H413.925ZM20.4233 263H19.4233V264H20.4233V263ZM20.4233 251.777H21.4233V250.777H20.4233V251.777ZM13.7788 251.777H12.7788V252.777H13.7788V251.777ZM13.7788 240.554H14.7788V239.554H13.7788V240.554ZM7.13428 240.554H6.13428V241.554H7.13428V240.554ZM7.13428 229.332H8.13428V228.332H7.13428V229.332ZM0.120605 229.332H-0.879395V230.332H0.120605V229.332ZM0.120605 34.6435V33.6435H-0.879395V34.6435H0.120605ZM6.76508 34.6435V35.6435H7.76508V34.6435H6.76508ZM6.76508 23.4209V22.4209H5.76508V23.4209H6.76508ZM13.4096 23.4209V24.4209H14.4096V23.4209H13.4096ZM13.4096 12.1983V11.1983H12.4096V12.1983H13.4096ZM20.0541 12.1983V13.1983H21.0541V12.1983H20.0541ZM0.120605 17.0777H-0.879395V18.0777H0.120605V17.0777ZM0.120605 9.75857V8.75857H-0.879395V9.75857H0.120605ZM0.120636 17.0777V18.0777H1.12064V17.0777H0.120636ZM0.120636 9.75857H1.12064V8.75857H0.120636V9.75857ZM413.187 -1.00024H20.0541V0.999756H413.187V-1.00024ZM414.187 12.1983V-0.000244141H412.187V12.1983H414.187ZM419.832 11.1983H413.187V13.1983H419.832V11.1983ZM420.832 23.4209V12.1983H418.832V23.4209H420.832ZM426.476 22.4209H419.832V24.4209H426.476V22.4209ZM427.476 34.6435V23.4209H425.476V34.6435H427.476ZM433.121 33.6435H426.476V35.6435H433.121V33.6435ZM434.121 228.356V34.6435H432.121V228.356H434.121ZM427.214 229.356H433.121V227.356H427.214V229.356ZM428.214 239.579V228.356H426.214V239.579H428.214ZM420.57 240.579H427.214V238.579H420.57V240.579ZM421.57 250.801V239.579H419.57V250.801H421.57ZM413.925 251.801H420.57V249.801H413.925V251.801ZM414.925 263V250.801H412.925V263H414.925ZM20.4233 264H413.925V262H20.4233V264ZM19.4233 251.777V263H21.4233V251.777H19.4233ZM13.7788 252.777H20.4233V250.777H13.7788V252.777ZM12.7788 240.554V251.777H14.7788V240.554H12.7788ZM7.13428 241.554H13.7788V239.554H7.13428V241.554ZM6.13428 229.332V240.554H8.13428V229.332H6.13428ZM0.120605 230.332H7.13428V228.332H0.120605V230.332ZM-0.879395 34.6435V229.332H1.12061V34.6435H-0.879395ZM6.76508 33.6435H0.120605V35.6435H6.76508V33.6435ZM5.76508 23.4209V34.6435H7.76508V23.4209H5.76508ZM13.4096 22.4209H6.76508V24.4209H13.4096V22.4209ZM12.4096 12.1983V23.4209H14.4096V12.1983H12.4096ZM20.0541 11.1983H13.4096V13.1983H20.0541V11.1983ZM19.0541 -0.000244141V12.1983H21.0541V-0.000244141H19.0541ZM1.12061 17.0777V9.75857H-0.879395V17.0777H1.12061ZM0.120636 16.0777H0.120605V18.0777H0.120636V16.0777ZM-0.879364 9.75857V17.0777H1.12064V9.75857H-0.879364ZM0.120605 10.7586H0.120636V8.75857H0.120605V10.7586Z" fill="black" mask="url(#path-1-inside-1_214_645)"/>
<mask id="path-3-inside-2_214_645" fill="white">
<path fill-rule="evenodd" clip-rule="evenodd" d="M25.7687 3.69922H407.842V15.5545H414.299V26.4615H420.757V37.3684H427.214V225.631H421.474V236.538H415.017V247.445H408.559V259.3H26.1274V248.393H19.6849V237.627H13.2123V226.58H6.396V37.3684H12.8536V26.4615H19.3111V15.5546H25.7687V3.69922Z"/>
</mask>
<path fill-rule="evenodd" clip-rule="evenodd" d="M25.7687 3.69922H407.842V15.5545H414.299V26.4615H420.757V37.3684H427.214V225.631H421.474V236.538H415.017V247.445H408.559V259.3H26.1274V248.393H19.6849V237.627H13.2123V226.58H6.396V37.3684H12.8536V26.4615H19.3111V15.5546H25.7687V3.69922Z" fill="#9B2A00"/>
<path d="M407.842 3.69922H410.842V0.699219H407.842V3.69922ZM25.7687 3.69922V0.699219H22.7687V3.69922H25.7687ZM407.842 15.5545H404.842V18.5545H407.842V15.5545ZM414.299 15.5545H417.299V12.5545H414.299V15.5545ZM414.299 26.4615H411.299V29.4615H414.299V26.4615ZM420.757 26.4615H423.757V23.4615H420.757V26.4615ZM420.757 37.3684H417.757V40.3684H420.757V37.3684ZM427.214 37.3684H430.214V34.3684H427.214V37.3684ZM427.214 225.631V228.631H430.214V225.631H427.214ZM421.474 225.631V222.631H418.474V225.631H421.474ZM421.474 236.538V239.538H424.474V236.538H421.474ZM415.017 236.538V233.538H412.017V236.538H415.017ZM415.017 247.445V250.445H418.017V247.445H415.017ZM408.559 247.445V244.445H405.559V247.445H408.559ZM408.559 259.3V262.3H411.559V259.3H408.559ZM26.1274 259.3H23.1274V262.3H26.1274V259.3ZM26.1274 248.393H29.1274V245.393H26.1274V248.393ZM19.6849 248.393H16.6849V251.393H19.6849V248.393ZM19.6849 237.627H22.6849V234.627H19.6849V237.627ZM13.2123 237.627H10.2123V240.627H13.2123V237.627ZM13.2123 226.58H16.2123V223.58H13.2123V226.58ZM6.396 226.58H3.396V229.58H6.396V226.58ZM6.396 37.3684V34.3684H3.396V37.3684H6.396ZM12.8536 37.3684V40.3684H15.8536V37.3684H12.8536ZM12.8536 26.4615V23.4615H9.85356V26.4615H12.8536ZM19.3111 26.4615V29.4615H22.3111V26.4615H19.3111ZM19.3111 15.5546V12.5546H16.3111V15.5546H19.3111ZM25.7687 15.5546V18.5546H28.7687V15.5546H25.7687ZM407.842 0.699219H25.7687V6.69922H407.842V0.699219ZM410.842 15.5545V3.69922H404.842V15.5545H410.842ZM414.299 12.5545H407.842V18.5545H414.299V12.5545ZM417.299 26.4615V15.5545H411.299V26.4615H417.299ZM420.757 23.4615H414.299V29.4615H420.757V23.4615ZM423.757 37.3684V26.4615H417.757V37.3684H423.757ZM427.214 34.3684H420.757V40.3684H427.214V34.3684ZM430.214 225.631V37.3684H424.214V225.631H430.214ZM421.474 228.631H427.214V222.631H421.474V228.631ZM424.474 236.538V225.631H418.474V236.538H424.474ZM415.017 239.538H421.474V233.538H415.017V239.538ZM418.017 247.445V236.538H412.017V247.445H418.017ZM408.559 250.445H415.017V244.445H408.559V250.445ZM411.559 259.3V247.445H405.559V259.3H411.559ZM26.1274 262.3H408.559V256.3H26.1274V262.3ZM23.1274 248.393V259.3H29.1274V248.393H23.1274ZM19.6849 251.393H26.1274V245.393H19.6849V251.393ZM16.6849 237.627V248.393H22.6849V237.627H16.6849ZM13.2123 240.627H19.6849V234.627H13.2123V240.627ZM10.2123 226.58V237.627H16.2123V226.58H10.2123ZM6.396 229.58H13.2123V223.58H6.396V229.58ZM3.396 37.3684V226.58H9.396V37.3684H3.396ZM12.8536 34.3684H6.396V40.3684H12.8536V34.3684ZM9.85356 26.4615V37.3684H15.8536V26.4615H9.85356ZM19.3111 23.4615H12.8536V29.4615H19.3111V23.4615ZM16.3111 15.5546V26.4615H22.3111V15.5546H16.3111ZM25.7687 12.5546H19.3111V18.5546H25.7687V12.5546ZM22.7687 3.69922V15.5546H28.7687V3.69922H22.7687Z" fill="#9B2A00" mask="url(#path-3-inside-2_214_645)"/>
</svg>
