<svg width="434" height="263" viewBox="0 0 434 263" fill="none" xmlns="http://www.w3.org/2000/svg">
<mask id="path-1-inside-1_214_385" fill="white">
<path fill-rule="evenodd" clip-rule="evenodd" d="M20.054 0H413.187V12.1985H419.832V23.4212H426.476V34.6438H433.12V228.356H427.214V239.579H420.57V250.801H413.925V263H20.4232V251.777H13.7787V240.555H7.13416V229.332H0.120483V34.6438H6.76496V23.4212H13.4095V12.1985H20.054V0ZM0.120483 9.75881V17.0779H0.120513V9.75881H0.120483Z"/>
</mask>
<path fill-rule="evenodd" clip-rule="evenodd" d="M20.054 0H413.187V12.1985H419.832V23.4212H426.476V34.6438H433.12V228.356H427.214V239.579H420.57V250.801H413.925V263H20.4232V251.777H13.7787V240.555H7.13416V229.332H0.120483V34.6438H6.76496V23.4212H13.4095V12.1985H20.054V0ZM0.120483 9.75881V17.0779H0.120513V9.75881H0.120483Z" fill="black"/>
<path d="M413.187 0H414.187V-1H413.187V0ZM20.054 0V-1H19.054V0H20.054ZM413.187 12.1985H412.187V13.1985H413.187V12.1985ZM419.832 12.1985H420.832V11.1985H419.832V12.1985ZM419.832 23.4212H418.832V24.4212H419.832V23.4212ZM426.476 23.4212H427.476V22.4212H426.476V23.4212ZM426.476 34.6438H425.476V35.6438H426.476V34.6438ZM433.12 34.6438H434.12V33.6438H433.12V34.6438ZM433.12 228.356V229.356H434.12V228.356H433.12ZM427.214 228.356V227.356H426.214V228.356H427.214ZM427.214 239.579V240.579H428.214V239.579H427.214ZM420.57 239.579V238.579H419.57V239.579H420.57ZM420.57 250.801V251.801H421.57V250.801H420.57ZM413.925 250.801V249.801H412.925V250.801H413.925ZM413.925 263V264H414.925V263H413.925ZM20.4232 263H19.4232V264H20.4232V263ZM20.4232 251.777H21.4232V250.777H20.4232V251.777ZM13.7787 251.777H12.7787V252.777H13.7787V251.777ZM13.7787 240.555H14.7787V239.555H13.7787V240.555ZM7.13416 240.555H6.13416V241.555H7.13416V240.555ZM7.13416 229.332H8.13416V228.332H7.13416V229.332ZM0.120483 229.332H-0.879517V230.332H0.120483V229.332ZM0.120483 34.6438V33.6438H-0.879517V34.6438H0.120483ZM6.76496 34.6438V35.6438H7.76496V34.6438H6.76496ZM6.76496 23.4212V22.4212H5.76496V23.4212H6.76496ZM13.4095 23.4212V24.4212H14.4095V23.4212H13.4095ZM13.4095 12.1985V11.1985H12.4095V12.1985H13.4095ZM20.054 12.1985V13.1985H21.054V12.1985H20.054ZM0.120483 17.0779H-0.879517V18.0779H0.120483V17.0779ZM0.120483 9.75881V8.75881H-0.879517V9.75881H0.120483ZM0.120513 17.0779V18.0779H1.12051V17.0779H0.120513ZM0.120513 9.75881H1.12051V8.75881H0.120513V9.75881ZM413.187 -1H20.054V1H413.187V-1ZM414.187 12.1985V0H412.187V12.1985H414.187ZM419.832 11.1985H413.187V13.1985H419.832V11.1985ZM420.832 23.4212V12.1985H418.832V23.4212H420.832ZM426.476 22.4212H419.832V24.4212H426.476V22.4212ZM427.476 34.6438V23.4212H425.476V34.6438H427.476ZM433.12 33.6438H426.476V35.6438H433.12V33.6438ZM434.12 228.356V34.6438H432.12V228.356H434.12ZM427.214 229.356H433.12V227.356H427.214V229.356ZM428.214 239.579V228.356H426.214V239.579H428.214ZM420.57 240.579H427.214V238.579H420.57V240.579ZM421.57 250.801V239.579H419.57V250.801H421.57ZM413.925 251.801H420.57V249.801H413.925V251.801ZM414.925 263V250.801H412.925V263H414.925ZM20.4232 264H413.925V262H20.4232V264ZM19.4232 251.777V263H21.4232V251.777H19.4232ZM13.7787 252.777H20.4232V250.777H13.7787V252.777ZM12.7787 240.555V251.777H14.7787V240.555H12.7787ZM7.13416 241.555H13.7787V239.555H7.13416V241.555ZM6.13416 229.332V240.555H8.13416V229.332H6.13416ZM0.120483 230.332H7.13416V228.332H0.120483V230.332ZM-0.879517 34.6438V229.332H1.12048V34.6438H-0.879517ZM6.76496 33.6438H0.120483V35.6438H6.76496V33.6438ZM5.76496 23.4212V34.6438H7.76496V23.4212H5.76496ZM13.4095 22.4212H6.76496V24.4212H13.4095V22.4212ZM12.4095 12.1985V23.4212H14.4095V12.1985H12.4095ZM20.054 11.1985H13.4095V13.1985H20.054V11.1985ZM19.054 0V12.1985H21.054V0H19.054ZM1.12048 17.0779V9.75881H-0.879517V17.0779H1.12048ZM0.120513 16.0779H0.120483V18.0779H0.120513V16.0779ZM-0.879487 9.75881V17.0779H1.12051V9.75881H-0.879487ZM0.120483 10.7588H0.120513V8.75881H0.120483V10.7588Z" fill="black" mask="url(#path-1-inside-1_214_385)"/>
<mask id="path-3-inside-2_214_385" fill="white">
<path fill-rule="evenodd" clip-rule="evenodd" d="M25.7685 3.69946H407.842V15.5548H414.299V26.4617H420.757V37.3686H427.214V225.631H421.474V236.538H415.017V247.445H408.559V259.3H26.1273V248.394H19.6848V237.627H13.2122V226.58H6.39587V37.3686H12.8534V26.4617H19.311V15.5548H25.7685V3.69946Z"/>
</mask>
<path fill-rule="evenodd" clip-rule="evenodd" d="M25.7685 3.69946H407.842V15.5548H414.299V26.4617H420.757V37.3686H427.214V225.631H421.474V236.538H415.017V247.445H408.559V259.3H26.1273V248.394H19.6848V237.627H13.2122V226.58H6.39587V37.3686H12.8534V26.4617H19.311V15.5548H25.7685V3.69946Z" fill="#CE5650"/>
<path d="M407.842 3.69946H410.842V0.699463H407.842V3.69946ZM25.7685 3.69946V0.699463H22.7685V3.69946H25.7685ZM407.842 15.5548H404.842V18.5548H407.842V15.5548ZM414.299 15.5548H417.299V12.5548H414.299V15.5548ZM414.299 26.4617H411.299V29.4617H414.299V26.4617ZM420.757 26.4617H423.757V23.4617H420.757V26.4617ZM420.757 37.3686H417.757V40.3686H420.757V37.3686ZM427.214 37.3686H430.214V34.3686H427.214V37.3686ZM427.214 225.631V228.631H430.214V225.631H427.214ZM421.474 225.631V222.631H418.474V225.631H421.474ZM421.474 236.538V239.538H424.474V236.538H421.474ZM415.017 236.538V233.538H412.017V236.538H415.017ZM415.017 247.445V250.445H418.017V247.445H415.017ZM408.559 247.445V244.445H405.559V247.445H408.559ZM408.559 259.3V262.3H411.559V259.3H408.559ZM26.1273 259.3H23.1273V262.3H26.1273V259.3ZM26.1273 248.394H29.1273V245.394H26.1273V248.394ZM19.6848 248.394H16.6848V251.394H19.6848V248.394ZM19.6848 237.627H22.6848V234.627H19.6848V237.627ZM13.2122 237.627H10.2122V240.627H13.2122V237.627ZM13.2122 226.58H16.2122V223.58H13.2122V226.58ZM6.39587 226.58H3.39587V229.58H6.39587V226.58ZM6.39587 37.3686V34.3686H3.39587V37.3686H6.39587ZM12.8534 37.3686V40.3686H15.8534V37.3686H12.8534ZM12.8534 26.4617V23.4617H9.85344V26.4617H12.8534ZM19.311 26.4617V29.4617H22.311V26.4617H19.311ZM19.311 15.5548V12.5548H16.311V15.5548H19.311ZM25.7685 15.5548V18.5548H28.7685V15.5548H25.7685ZM407.842 0.699463H25.7685V6.69946H407.842V0.699463ZM410.842 15.5548V3.69946H404.842V15.5548H410.842ZM414.299 12.5548H407.842V18.5548H414.299V12.5548ZM417.299 26.4617V15.5548H411.299V26.4617H417.299ZM420.757 23.4617H414.299V29.4617H420.757V23.4617ZM423.757 37.3686V26.4617H417.757V37.3686H423.757ZM427.214 34.3686H420.757V40.3686H427.214V34.3686ZM430.214 225.631V37.3686H424.214V225.631H430.214ZM421.474 228.631H427.214V222.631H421.474V228.631ZM424.474 236.538V225.631H418.474V236.538H424.474ZM415.017 239.538H421.474V233.538H415.017V239.538ZM418.017 247.445V236.538H412.017V247.445H418.017ZM408.559 250.445H415.017V244.445H408.559V250.445ZM411.559 259.3V247.445H405.559V259.3H411.559ZM26.1273 262.3H408.559V256.3H26.1273V262.3ZM23.1273 248.394V259.3H29.1273V248.394H23.1273ZM19.6848 251.394H26.1273V245.394H19.6848V251.394ZM16.6848 237.627V248.394H22.6848V237.627H16.6848ZM13.2122 240.627H19.6848V234.627H13.2122V240.627ZM10.2122 226.58V237.627H16.2122V226.58H10.2122ZM6.39587 229.58H13.2122V223.58H6.39587V229.58ZM3.39587 37.3686V226.58H9.39587V37.3686H3.39587ZM12.8534 34.3686H6.39587V40.3686H12.8534V34.3686ZM9.85344 26.4617V37.3686H15.8534V26.4617H9.85344ZM19.311 23.4617H12.8534V29.4617H19.311V23.4617ZM16.311 15.5548V26.4617H22.311V15.5548H16.311ZM25.7685 12.5548H19.311V18.5548H25.7685V12.5548ZM22.7685 3.69946V15.5548H28.7685V3.69946H22.7685Z" fill="#CE5650" mask="url(#path-3-inside-2_214_385)"/>
</svg>
