<svg width="434" height="263" viewBox="0 0 434 263" fill="none" xmlns="http://www.w3.org/2000/svg">
<mask id="path-1-inside-1_214_489" fill="white">
<path fill-rule="evenodd" clip-rule="evenodd" d="M20.0539 0H413.187V12.1985H419.831V23.4212H426.476V34.6438H433.12V228.356H427.214V239.579H420.57V250.801H413.925V263H20.4231V251.777H13.7786V240.555H7.13404V229.332H0.120361V34.6438H6.76484V23.4212H13.4094V12.1985H20.0539V0ZM0.120361 9.75881V17.0779H0.120391V9.75881H0.120361Z"/>
</mask>
<path fill-rule="evenodd" clip-rule="evenodd" d="M20.0539 0H413.187V12.1985H419.831V23.4212H426.476V34.6438H433.12V228.356H427.214V239.579H420.57V250.801H413.925V263H20.4231V251.777H13.7786V240.555H7.13404V229.332H0.120361V34.6438H6.76484V23.4212H13.4094V12.1985H20.0539V0ZM0.120361 9.75881V17.0779H0.120391V9.75881H0.120361Z" fill="black"/>
<path d="M413.187 0H414.187V-1H413.187V0ZM20.0539 0V-1H19.0539V0H20.0539ZM413.187 12.1985H412.187V13.1985H413.187V12.1985ZM419.831 12.1985H420.831V11.1985H419.831V12.1985ZM419.831 23.4212H418.831V24.4212H419.831V23.4212ZM426.476 23.4212H427.476V22.4212H426.476V23.4212ZM426.476 34.6438H425.476V35.6438H426.476V34.6438ZM433.12 34.6438H434.12V33.6438H433.12V34.6438ZM433.12 228.356V229.356H434.12V228.356H433.12ZM427.214 228.356V227.356H426.214V228.356H427.214ZM427.214 239.579V240.579H428.214V239.579H427.214ZM420.57 239.579V238.579H419.57V239.579H420.57ZM420.57 250.801V251.801H421.57V250.801H420.57ZM413.925 250.801V249.801H412.925V250.801H413.925ZM413.925 263V264H414.925V263H413.925ZM20.4231 263H19.4231V264H20.4231V263ZM20.4231 251.777H21.4231V250.777H20.4231V251.777ZM13.7786 251.777H12.7786V252.777H13.7786V251.777ZM13.7786 240.555H14.7786V239.555H13.7786V240.555ZM7.13404 240.555H6.13404V241.555H7.13404V240.555ZM7.13404 229.332H8.13404V228.332H7.13404V229.332ZM0.120361 229.332H-0.879639V230.332H0.120361V229.332ZM0.120361 34.6438V33.6438H-0.879639V34.6438H0.120361ZM6.76484 34.6438V35.6438H7.76484V34.6438H6.76484ZM6.76484 23.4212V22.4212H5.76484V23.4212H6.76484ZM13.4094 23.4212V24.4212H14.4094V23.4212H13.4094ZM13.4094 12.1985V11.1985H12.4094V12.1985H13.4094ZM20.0539 12.1985V13.1985H21.0539V12.1985H20.0539ZM0.120361 17.0779H-0.879639V18.0779H0.120361V17.0779ZM0.120361 9.75881V8.75881H-0.879639V9.75881H0.120361ZM0.120391 17.0779V18.0779H1.12039V17.0779H0.120391ZM0.120391 9.75881H1.12039V8.75881H0.120391V9.75881ZM413.187 -1H20.0539V1H413.187V-1ZM414.187 12.1985V0H412.187V12.1985H414.187ZM419.831 11.1985H413.187V13.1985H419.831V11.1985ZM420.831 23.4212V12.1985H418.831V23.4212H420.831ZM426.476 22.4212H419.831V24.4212H426.476V22.4212ZM427.476 34.6438V23.4212H425.476V34.6438H427.476ZM433.12 33.6438H426.476V35.6438H433.12V33.6438ZM434.12 228.356V34.6438H432.12V228.356H434.12ZM427.214 229.356H433.12V227.356H427.214V229.356ZM428.214 239.579V228.356H426.214V239.579H428.214ZM420.57 240.579H427.214V238.579H420.57V240.579ZM421.57 250.801V239.579H419.57V250.801H421.57ZM413.925 251.801H420.57V249.801H413.925V251.801ZM414.925 263V250.801H412.925V263H414.925ZM20.4231 264H413.925V262H20.4231V264ZM19.4231 251.777V263H21.4231V251.777H19.4231ZM13.7786 252.777H20.4231V250.777H13.7786V252.777ZM12.7786 240.555V251.777H14.7786V240.555H12.7786ZM7.13404 241.555H13.7786V239.555H7.13404V241.555ZM6.13404 229.332V240.555H8.13404V229.332H6.13404ZM0.120361 230.332H7.13404V228.332H0.120361V230.332ZM-0.879639 34.6438V229.332H1.12036V34.6438H-0.879639ZM6.76484 33.6438H0.120361V35.6438H6.76484V33.6438ZM5.76484 23.4212V34.6438H7.76484V23.4212H5.76484ZM13.4094 22.4212H6.76484V24.4212H13.4094V22.4212ZM12.4094 12.1985V23.4212H14.4094V12.1985H12.4094ZM20.0539 11.1985H13.4094V13.1985H20.0539V11.1985ZM19.0539 0V12.1985H21.0539V0H19.0539ZM1.12036 17.0779V9.75881H-0.879639V17.0779H1.12036ZM0.120391 16.0779H0.120361V18.0779H0.120391V16.0779ZM-0.879609 9.75881V17.0779H1.12039V9.75881H-0.879609ZM0.120361 10.7588H0.120391V8.75881H0.120361V10.7588Z" fill="black" mask="url(#path-1-inside-1_214_489)"/>
<mask id="path-3-inside-2_214_489" fill="white">
<path fill-rule="evenodd" clip-rule="evenodd" d="M25.7684 3.69946H407.841V15.5548H414.299V26.4617H420.757V37.3686H427.214V225.631H421.474V236.538H415.016V247.445H408.559V259.3H26.1271V248.394H19.6847V237.627H13.212V226.58H6.39575V37.3686H12.8533V26.4617H19.3109V15.5548H25.7684V3.69946Z"/>
</mask>
<path fill-rule="evenodd" clip-rule="evenodd" d="M25.7684 3.69946H407.841V15.5548H414.299V26.4617H420.757V37.3686H427.214V225.631H421.474V236.538H415.016V247.445H408.559V259.3H26.1271V248.394H19.6847V237.627H13.212V226.58H6.39575V37.3686H12.8533V26.4617H19.3109V15.5548H25.7684V3.69946Z" fill="#3E5680"/>
<path d="M407.841 3.69946H410.841V0.699463H407.841V3.69946ZM25.7684 3.69946V0.699463H22.7684V3.69946H25.7684ZM407.841 15.5548H404.841V18.5548H407.841V15.5548ZM414.299 15.5548H417.299V12.5548H414.299V15.5548ZM414.299 26.4617H411.299V29.4617H414.299V26.4617ZM420.757 26.4617H423.757V23.4617H420.757V26.4617ZM420.757 37.3686H417.757V40.3686H420.757V37.3686ZM427.214 37.3686H430.214V34.3686H427.214V37.3686ZM427.214 225.631V228.631H430.214V225.631H427.214ZM421.474 225.631V222.631H418.474V225.631H421.474ZM421.474 236.538V239.538H424.474V236.538H421.474ZM415.016 236.538V233.538H412.016V236.538H415.016ZM415.016 247.445V250.445H418.016V247.445H415.016ZM408.559 247.445V244.445H405.559V247.445H408.559ZM408.559 259.3V262.3H411.559V259.3H408.559ZM26.1271 259.3H23.1271V262.3H26.1271V259.3ZM26.1271 248.394H29.1271V245.394H26.1271V248.394ZM19.6847 248.394H16.6847V251.394H19.6847V248.394ZM19.6847 237.627H22.6847V234.627H19.6847V237.627ZM13.212 237.627H10.212V240.627H13.212V237.627ZM13.212 226.58H16.212V223.58H13.212V226.58ZM6.39575 226.58H3.39575V229.58H6.39575V226.58ZM6.39575 37.3686V34.3686H3.39575V37.3686H6.39575ZM12.8533 37.3686V40.3686H15.8533V37.3686H12.8533ZM12.8533 26.4617V23.4617H9.85332V26.4617H12.8533ZM19.3109 26.4617V29.4617H22.3109V26.4617H19.3109ZM19.3109 15.5548V12.5548H16.3109V15.5548H19.3109ZM25.7684 15.5548V18.5548H28.7684V15.5548H25.7684ZM407.841 0.699463H25.7684V6.69946H407.841V0.699463ZM410.841 15.5548V3.69946H404.841V15.5548H410.841ZM414.299 12.5548H407.841V18.5548H414.299V12.5548ZM417.299 26.4617V15.5548H411.299V26.4617H417.299ZM420.757 23.4617H414.299V29.4617H420.757V23.4617ZM423.757 37.3686V26.4617H417.757V37.3686H423.757ZM427.214 34.3686H420.757V40.3686H427.214V34.3686ZM430.214 225.631V37.3686H424.214V225.631H430.214ZM421.474 228.631H427.214V222.631H421.474V228.631ZM424.474 236.538V225.631H418.474V236.538H424.474ZM415.016 239.538H421.474V233.538H415.016V239.538ZM418.016 247.445V236.538H412.016V247.445H418.016ZM408.559 250.445H415.016V244.445H408.559V250.445ZM411.559 259.3V247.445H405.559V259.3H411.559ZM26.1271 262.3H408.559V256.3H26.1271V262.3ZM23.1271 248.394V259.3H29.1271V248.394H23.1271ZM19.6847 251.394H26.1271V245.394H19.6847V251.394ZM16.6847 237.627V248.394H22.6847V237.627H16.6847ZM13.212 240.627H19.6847V234.627H13.212V240.627ZM10.212 226.58V237.627H16.212V226.58H10.212ZM6.39575 229.58H13.212V223.58H6.39575V229.58ZM3.39575 37.3686V226.58H9.39575V37.3686H3.39575ZM12.8533 34.3686H6.39575V40.3686H12.8533V34.3686ZM9.85332 26.4617V37.3686H15.8533V26.4617H9.85332ZM19.3109 23.4617H12.8533V29.4617H19.3109V23.4617ZM16.3109 15.5548V26.4617H22.3109V15.5548H16.3109ZM25.7684 12.5548H19.3109V18.5548H25.7684V12.5548ZM22.7684 3.69946V15.5548H28.7684V3.69946H22.7684Z" fill="#3E5680" mask="url(#path-3-inside-2_214_489)"/>
</svg>
